<?xml version="1.0" encoding="UTF-8" standalone="no" ?>
<!DOCTYPE svg PUBLIC "-//W3C//DTD SVG 1.1//EN" "http://www.w3.org/Graphics/SVG/1.1/DTD/svg11.dtd">
<svg xmlns="http://www.w3.org/2000/svg" xmlns:xlink="http://www.w3.org/1999/xlink" version="1.1" width="400" height="400" viewBox="0 0 400 400" xml:space="preserve">
<desc>Created with Fabric.js 3.6.2</desc>
<defs>
</defs>
<g transform="matrix(8.33 0 0 8.33 158.33 149.96)"  >
<path style="stroke: none; stroke-width: 1; stroke-dasharray: none; stroke-linecap: butt; stroke-dashoffset: 0; stroke-linejoin: miter; stroke-miterlimit: 4; fill: rgb(0,0,0); fill-rule: nonzero; opacity: 1;"  transform=" translate(-7, -6)" d="M 2 5.99519 C 2 5.44556 2.44556 5 2.99519 5 H 11.0048 C 11.5544 5 12 5.44556 12 5.99519 C 12 6.54482 11.5544 6.99039 11.0048 6.99039 H 2.99519 C 2.44556 6.99039 2 6.54482 2 5.99519 Z" stroke-linecap="round" />
</g>
<g transform="matrix(8.33 0 0 8.33 200 200)"  >
<path style="stroke: none; stroke-width: 1; stroke-dasharray: none; stroke-linecap: butt; stroke-dashoffset: 0; stroke-linejoin: miter; stroke-miterlimit: 4; fill: rgb(0,0,0); fill-rule: nonzero; opacity: 1;"  transform=" translate(-12, -12)" d="M 2 11.9998 C 2 11.4501 2.44556 11.0046 2.99519 11.0046 H 21.0048 C 21.5544 11.0046 22 11.4501 22 11.9998 C 22 12.5494 21.5544 12.9949 21.0048 12.9949 H 2.99519 C 2.44556 12.9949 2 12.5494 2 11.9998 Z" stroke-linecap="round" />
</g>
<g transform="matrix(8.33 0 0 8.33 175 250.04)"  >
<path style="stroke: none; stroke-width: 1; stroke-dasharray: none; stroke-linecap: butt; stroke-dashoffset: 0; stroke-linejoin: miter; stroke-miterlimit: 4; fill: rgb(0,0,0); fill-rule: nonzero; opacity: 1;"  transform=" translate(-9, -18)" d="M 2.99519 17.0096 C 2.44556 17.0096 2 17.4552 2 18.0048 C 2 18.5544 2.44556 19 2.99519 19 H 15.0048 C 15.5544 19 16 18.5544 16 18.0048 C 16 17.4552 15.5544 17.0096 15.0048 17.0096 H 2.99519 Z" stroke-linecap="round" />
</g>
</svg>